<mxfile host="app.diagrams.net" agent="Mozilla/5.0 (Windows NT 10.0; Win64; x64) AppleWebKit/537.36 (KHTML, like Gecko) Chrome/133.0.0.0 Safari/537.36" version="26.0.11">
  <diagram name="Page-1" id="s92ln3BwHjcbB9T2ucKZ">
    <mxGraphModel dx="636" dy="1007" grid="1" gridSize="10" guides="1" tooltips="1" connect="1" arrows="1" fold="1" page="1" pageScale="1" pageWidth="850" pageHeight="1100" math="0" shadow="0">
      <root>
        <mxCell id="0" />
        <mxCell id="1" parent="0" />
        <mxCell id="-AgY-HqdmHrRTBMcjC1I-9" value="&lt;div&gt;SATISFACTION WITH CURRENT PROVIDER&lt;/div&gt;&lt;div&gt;&lt;br&gt;&lt;/div&gt;&lt;div&gt;&lt;br&gt;&lt;/div&gt;" style="rounded=0;whiteSpace=wrap;html=1;align=left;" vertex="1" parent="1">
          <mxGeometry x="10" y="790" width="630" height="110" as="geometry" />
        </mxCell>
        <mxCell id="-AgY-HqdmHrRTBMcjC1I-1" value="LOGO" style="rounded=0;whiteSpace=wrap;html=1;" vertex="1" parent="1">
          <mxGeometry x="10" y="20" width="120" height="60" as="geometry" />
        </mxCell>
        <mxCell id="-AgY-HqdmHrRTBMcjC1I-2" value="COMPANY NAME" style="rounded=0;whiteSpace=wrap;html=1;" vertex="1" parent="1">
          <mxGeometry x="140" y="20" width="360" height="60" as="geometry" />
        </mxCell>
        <mxCell id="-AgY-HqdmHrRTBMcjC1I-3" value="DATE" style="rounded=0;whiteSpace=wrap;html=1;" vertex="1" parent="1">
          <mxGeometry x="510" y="20" width="120" height="60" as="geometry" />
        </mxCell>
        <mxCell id="-AgY-HqdmHrRTBMcjC1I-4" value="PERSONAL INFORMATION&lt;div&gt;&lt;br&gt;&lt;/div&gt;&lt;div&gt;TITLE: [ ] FIRST NAME: [&amp;nbsp; &amp;nbsp; &amp;nbsp; &amp;nbsp; &amp;nbsp; &amp;nbsp; &amp;nbsp;]&amp;nbsp; MIDDLE INITIAL [ ] LAST NAME [ ]&lt;/div&gt;&lt;div&gt;DATE OF BIRTH (MM/DD/YYYY): [&amp;nbsp; &amp;nbsp; &amp;nbsp; &amp;nbsp; &amp;nbsp; &amp;nbsp; &amp;nbsp; ]&amp;nbsp; &amp;nbsp;SOCIAL SECURITY NUMBER: [&amp;nbsp; &amp;nbsp; &amp;nbsp; &amp;nbsp; &amp;nbsp; &amp;nbsp; &amp;nbsp;]&lt;/div&gt;" style="rounded=0;whiteSpace=wrap;html=1;align=left;" vertex="1" parent="1">
          <mxGeometry x="10" y="90" width="630" height="70" as="geometry" />
        </mxCell>
        <mxCell id="-AgY-HqdmHrRTBMcjC1I-5" value="&lt;div&gt;MAILING INFORMATION&lt;/div&gt;&lt;div&gt;&lt;br&gt;&lt;/div&gt;&lt;div&gt;ADDRESS LINE 1:&amp;nbsp; [&amp;nbsp; &amp;nbsp; &amp;nbsp; &amp;nbsp; &amp;nbsp; &amp;nbsp; &amp;nbsp; ]&lt;/div&gt;&lt;div&gt;ADDRESS LINE 2: [&amp;nbsp; &amp;nbsp; &amp;nbsp; &amp;nbsp; &amp;nbsp; &amp;nbsp; &amp;nbsp; &amp;nbsp; ]&lt;/div&gt;&lt;div&gt;CITY: [&amp;nbsp; &amp;nbsp; &amp;nbsp; &amp;nbsp; &amp;nbsp; &amp;nbsp; &amp;nbsp;]&amp;nbsp; STATE: [&amp;nbsp; &amp;nbsp; ]&amp;nbsp; &amp;nbsp;ZIP CODE: [&amp;nbsp; &amp;nbsp; &amp;nbsp; &amp;nbsp; &amp;nbsp;]&lt;/div&gt;" style="rounded=0;whiteSpace=wrap;html=1;align=left;" vertex="1" parent="1">
          <mxGeometry x="10" y="170" width="630" height="90" as="geometry" />
        </mxCell>
        <mxCell id="-AgY-HqdmHrRTBMcjC1I-6" value="&lt;div&gt;CONTACT INFORMATION&lt;/div&gt;&lt;div&gt;&lt;br&gt;&lt;/div&gt;&lt;div&gt;EMAIL: [&amp;nbsp; &amp;nbsp; &amp;nbsp; &amp;nbsp; &amp;nbsp; &amp;nbsp; &amp;nbsp; &amp;nbsp; &amp;nbsp; &amp;nbsp; &amp;nbsp;]&amp;nbsp; PHONE NUMBER: [&amp;nbsp; &amp;nbsp; &amp;nbsp; &amp;nbsp; &amp;nbsp; &amp;nbsp; &amp;nbsp; &amp;nbsp; &amp;nbsp; &amp;nbsp;]&lt;/div&gt;" style="rounded=0;whiteSpace=wrap;html=1;align=left;" vertex="1" parent="1">
          <mxGeometry x="10" y="270" width="630" height="60" as="geometry" />
        </mxCell>
        <mxCell id="-AgY-HqdmHrRTBMcjC1I-7" value="&lt;div&gt;ADDITIONAL INFORMATION&lt;/div&gt;&lt;div&gt;&lt;br&gt;&lt;/div&gt;&lt;div&gt;MARITAL STATUS&lt;/div&gt;&lt;div&gt;&amp;nbsp;* SINGLE&lt;/div&gt;&lt;div&gt;&amp;nbsp;* WIDOWED&amp;nbsp;&lt;/div&gt;&lt;div&gt;&amp;nbsp;* DIVORCED&lt;/div&gt;&lt;div&gt;&amp;nbsp;* MARRIED&lt;/div&gt;&lt;div&gt;&lt;br&gt;&lt;/div&gt;&lt;div&gt;IMMIGRATION STATUS&lt;/div&gt;&lt;div&gt;&amp;nbsp;* U.S. CITIZEN&amp;nbsp;&lt;/div&gt;&lt;div&gt;&amp;nbsp;* PERMANENT RESIDENT&lt;/div&gt;&lt;div&gt;&amp;nbsp;* VISA HOLDER&lt;/div&gt;&lt;div&gt;&amp;nbsp;* OTHER&lt;/div&gt;&lt;div&gt;&lt;br&gt;&lt;/div&gt;&lt;div&gt;RACE:&lt;/div&gt;&lt;div&gt;&amp;nbsp;* WHITE&lt;/div&gt;&lt;div&gt;&amp;nbsp;* BLACK OR AFRICAN AMERICAN&lt;/div&gt;&lt;div&gt;&amp;nbsp;* ASIAN&lt;/div&gt;&lt;div&gt;&amp;nbsp;* AMERICAN INDIAN OR ALASKA NATIVE&lt;/div&gt;&lt;div&gt;&amp;nbsp;* NATIVE HAWAIIAN OR OTHER PACIFIC ISLANDER&amp;nbsp;&lt;/div&gt;&lt;div&gt;&amp;nbsp;* TWO OR MORE RACES&amp;nbsp;&lt;/div&gt;" style="rounded=0;whiteSpace=wrap;html=1;align=left;" vertex="1" parent="1">
          <mxGeometry x="10" y="340" width="630" height="320" as="geometry" />
        </mxCell>
        <mxCell id="-AgY-HqdmHrRTBMcjC1I-8" value="&lt;div&gt;VACCINATION HISTORY (WITHIN THE LAST 10 YEARS)&lt;/div&gt;&lt;div&gt;&amp;nbsp;- SELECT ALL THE VACCINES YOU HAVE RECEIVED IN THE PAST 10 YEARS&lt;/div&gt;&lt;div&gt;&amp;nbsp;* COVID-19&lt;/div&gt;&lt;div&gt;&amp;nbsp;* INFLUENZA (FLU)&lt;/div&gt;&lt;div&gt;&amp;nbsp;* TETANUS&lt;/div&gt;&lt;div&gt;&amp;nbsp;* MEASLES, MUMPS, AND RUBELLA (MMR)&lt;/div&gt;&lt;div&gt;&amp;nbsp;* HEPATITIS B&lt;/div&gt;" style="rounded=0;whiteSpace=wrap;html=1;align=left;" vertex="1" parent="1">
          <mxGeometry x="10" y="670" width="630" height="110" as="geometry" />
        </mxCell>
        <mxCell id="-AgY-HqdmHrRTBMcjC1I-11" value="" style="endArrow=classic;html=1;rounded=0;" edge="1" parent="1">
          <mxGeometry relative="1" as="geometry">
            <mxPoint x="500" y="871" as="sourcePoint" />
            <mxPoint x="600" y="871" as="targetPoint" />
          </mxGeometry>
        </mxCell>
        <mxCell id="-AgY-HqdmHrRTBMcjC1I-12" value="Label" style="edgeLabel;resizable=0;html=1;;align=center;verticalAlign=middle;" connectable="0" vertex="1" parent="-AgY-HqdmHrRTBMcjC1I-11">
          <mxGeometry relative="1" as="geometry" />
        </mxCell>
        <mxCell id="-AgY-HqdmHrRTBMcjC1I-13" value="VERY SATISFIED" style="edgeLabel;html=1;align=center;verticalAlign=middle;resizable=0;points=[];" vertex="1" connectable="0" parent="-AgY-HqdmHrRTBMcjC1I-11">
          <mxGeometry x="-0.1" y="1" relative="1" as="geometry">
            <mxPoint x="-15" as="offset" />
          </mxGeometry>
        </mxCell>
        <mxCell id="-AgY-HqdmHrRTBMcjC1I-14" value="" style="endArrow=classic;html=1;rounded=0;" edge="1" parent="1">
          <mxGeometry width="50" height="50" relative="1" as="geometry">
            <mxPoint x="86.11" y="871" as="sourcePoint" />
            <mxPoint x="29.9977777777776" y="871" as="targetPoint" />
          </mxGeometry>
        </mxCell>
        <mxCell id="-AgY-HqdmHrRTBMcjC1I-15" value="VERY UNSATISFIED" style="edgeLabel;html=1;align=center;verticalAlign=middle;resizable=0;points=[];" vertex="1" connectable="0" parent="-AgY-HqdmHrRTBMcjC1I-14">
          <mxGeometry x="-0.3228" y="1" relative="1" as="geometry">
            <mxPoint x="69" as="offset" />
          </mxGeometry>
        </mxCell>
        <mxCell id="-AgY-HqdmHrRTBMcjC1I-22" value="NEUTRAL" style="text;html=1;align=center;verticalAlign=middle;whiteSpace=wrap;rounded=0;" vertex="1" parent="1">
          <mxGeometry x="295" y="848" width="60" height="30" as="geometry" />
        </mxCell>
        <mxCell id="-AgY-HqdmHrRTBMcjC1I-24" value="&lt;div&gt;ACCOUNT SETUP:&lt;/div&gt;&lt;div&gt;USER ID: [&amp;nbsp; &amp;nbsp; &amp;nbsp; &amp;nbsp;]&lt;/div&gt;&lt;div&gt;PASSWORD: [******]&lt;/div&gt;&lt;div&gt;RE-ENTER PASSWORD: [******]&lt;/div&gt;" style="rounded=0;whiteSpace=wrap;html=1;align=left;" vertex="1" parent="1">
          <mxGeometry x="10" y="910" width="630" height="60" as="geometry" />
        </mxCell>
        <mxCell id="-AgY-HqdmHrRTBMcjC1I-26" value="" style="endArrow=none;html=1;rounded=0;" edge="1" parent="1">
          <mxGeometry width="50" height="50" relative="1" as="geometry">
            <mxPoint x="190" y="870" as="sourcePoint" />
            <mxPoint x="490" y="870" as="targetPoint" />
          </mxGeometry>
        </mxCell>
        <mxCell id="-AgY-HqdmHrRTBMcjC1I-27" value="REST AND SUBMIT BUTTONS" style="rounded=0;whiteSpace=wrap;html=1;" vertex="1" parent="1">
          <mxGeometry x="10" y="980" width="630" height="30" as="geometry" />
        </mxCell>
        <mxCell id="-AgY-HqdmHrRTBMcjC1I-28" value="FOOTER WITH CONTACT INFO AND LINKS TO SOCIALS" style="rounded=0;whiteSpace=wrap;html=1;" vertex="1" parent="1">
          <mxGeometry x="10" y="1020" width="630" height="70" as="geometry" />
        </mxCell>
      </root>
    </mxGraphModel>
  </diagram>
</mxfile>
